<?xml version="1.0" standalone="no"?>
<!DOCTYPE svg PUBLIC "-//W3C//DTD SVG 20010904//EN"
 "http://www.w3.org/TR/2001/REC-SVG-20010904/DTD/svg10.dtd">
<svg version="1.0" xmlns="http://www.w3.org/2000/svg"
 width="402.000000pt" height="388.000000pt" viewBox="0 0 402.000000 388.000000"
 preserveAspectRatio="xMidYMid meet">

<g transform="translate(0.000000,388.000000) scale(0.100000,-0.100000)"
fill="#000000" stroke="none">
<path d="M3869 3537 c-167 -243 -1175 -1576 -1199 -1585 -4 -2 -117 104 -249
234 -133 130 -243 235 -245 233 -2 -2 -100 -164 -218 -359 -252 -416 -334
-551 -715 -1162 l-285 -458 -110 0 c-97 0 -109 2 -104 16 7 18 348 587 977
1631 230 381 419 699 421 706 5 21 142 257 149 257 4 0 80 -71 170 -157 90
-86 178 -169 195 -185 l31 -29 231 315 c128 174 233 320 234 325 3 10 -235
191 -249 191 -5 -1 -64 -77 -131 -171 -68 -94 -128 -169 -132 -167 -5 2 -102
92 -215 202 l-207 198 -17 -28 c-10 -16 -91 -155 -180 -309 -89 -154 -188
-323 -220 -375 -32 -52 -386 -639 -785 -1305 l-728 -1210 -109 -110 c-60 -61
-109 -114 -109 -118 0 -4 889 -7 1975 -7 l1975 0 0 1820 c0 1001 -1 1820 -2
1819 -2 0 -69 -96 -149 -212z m-229 -2027 l0 -1070 -1110 0 c-610 0 -1110 2
-1110 4 0 3 124 204 276 448 378 606 384 615 384 621 0 7 159 269 171 282 6 6
93 -74 232 -213 l223 -223 92 118 c51 65 260 339 465 610 204 271 373 492 375
493 1 0 2 -481 2 -1070z"/>
</g>
</svg>
