<svg height="512" viewBox="0 0 60 60" width="512" xmlns="http://www.w3.org/2000/svg"><g id="Page-1" fill="none" fill-rule="evenodd"><g id="069---SQL-Database" fill-rule="nonzero"><path id="Shape" d="m27 42.17v8c-2.6292956.5620618-5.3113196.8403218-8 .83-9.94 0-18-3.58-18-8v-8c0 4.42 8.06 8 18 8 2.6886804.0103218 5.3707044-.2679382 8-.83z" fill="#02a9f4"/><path id="Shape" d="m24 42.674v7.5c-2.1753117.4628979-4.3879428.7286412-6.611.794.532.021 1.067.036 1.611.036 2.6886804.0103218 5.3707044-.2679382 8-.83v-8c-.951.205-1.962.367-3 .5z" fill="#0377bc"/><path id="Shape" d="m37 26v11h-8c-1.1032019.0032948-1.9967052.8967981-2 2v3.17c-2.6292956.5620618-5.3113196.8403218-8 .83-9.94 0-18-3.58-18-8v-9c0 4.42 8.06 8 18 8s18-3.58 18-8z" fill="#02a9f4"/><path id="Shape" d="m24 39v3.17c-2.1753117.4628979-4.3879428.7286412-6.611.794.532.021 1.067.036 1.611.036 2.6886804.0103218 5.3707044-.2679382 8-.83v-3.17c.0032948-1.1032019.8967981-1.9967052 2-2h-3c-1.1032019.0032948-1.9967052.8967981-2 2z" fill="#0377bc"/><path id="Shape" d="m34 30.419v6.581h3v-11c0 1.635-1.108 3.153-3 4.419z" fill="#0377bc"/><path id="Shape" d="m37 17v9c0 4.42-8.06 8-18 8s-18-3.58-18-8v-9c0 4.42 8.06 8 18 8s18-3.58 18-8z" fill="#02a9f4"/><path id="Shape" d="m34 21.419v4.581c0 4.2-7.263 7.627-16.5 7.966.5.019.994.034 1.5.034 9.94 0 18-3.58 18-8v-9c0 1.635-1.108 3.153-3 4.419z" fill="#0377bc"/><path id="Shape" d="m37 9v8c0 4.42-8.06 8-18 8s-18-3.58-18-8v-8c0-4.42 8.06-8 18-8s18 3.58 18 8z" fill="#02a9f4"/><path id="Shape" d="m19 1c-.506 0-1 .015-1.5.034 9.237.339 16.5 3.771 16.5 7.966v8c0 4.2-7.263 7.627-16.5 7.966.5.019.994.034 1.5.034 9.94 0 18-3.58 18-8v-8c0-4.42-8.06-8-18-8z" fill="#0377bc"/><rect id="Rectangle-path" fill="#ffdc00" height="22" rx="2" width="32" x="27" y="37"/><path id="Shape" d="m57 37h-3c1.1032019.0032948 1.9967052.8967981 2 2v18c-.0032948 1.1032019-.8967981 1.9967052-2 2h3c1.1032019-.0032948 1.9967052-.8967981 2-2v-18c-.0032948-1.1032019-.8967981-1.9967052-2-2z" fill="#fec108"/><ellipse id="Oval" cx="19" cy="10" fill="#0377bc" rx="13" ry="5"/><g fill="#000"><path id="Shape" d="m19 16c6.787 0 14-2.1 14-6s-7.213-6-14-6-14 2.1-14 6 7.213 6 14 6zm0-10c7.435 0 12 2.33 12 4s-4.565 4-12 4-12-2.33-12-4 4.565-4 12-4z"/><path id="Shape" d="m57 36h-19v-27c0-5.047-8.346-9-19-9s-19 3.953-19 9v34c0 5.047 8.346 9 19 9 2.3473451.0038235 4.6902245-.2046928 7-.623v5.623c0 1.6568542 1.3431458 3 3 3h28c1.6568542 0 3-1.3431458 3-3v-18c0-1.6568542-1.3431458-3-3-3zm-28 0c-1.6568542 0-3 1.3431458-3 3v2.341c-2.3068406.4433616-4.6509454.6640423-7 .659-10.169 0-17-3.619-17-7v-4.936c3.086 2.949 9.455 4.936 17 4.936s13.914-1.987 17-4.936v5.936zm7-10c0 3.381-6.831 7-17 7s-17-3.619-17-7v-4.936c3.086 2.949 9.455 4.936 17 4.936s13.914-1.987 17-4.936zm-34-17c0-3.381 6.831-7 17-7s17 3.619 17 7v8c0 3.381-6.831 7-17 7s-17-3.619-17-7zm17 41c-10.169 0-17-3.619-17-7v-3.936c3.086 2.949 9.455 4.936 17 4.936 2.3473797.003592 4.6902682-.2052598 7-.624v5.965c-2.3067837.4437597-4.6509269.6644441-7 .659zm39 7c0 .5522847-.4477153 1-1 1h-28c-.5522847 0-1-.4477153-1-1v-18c0-.5522847.4477153-1 1-1h28c.5522847 0 1 .4477153 1 1z"/><path id="Shape" d="m34.5 44h2.5c.5522847 0 1-.4477153 1-1s-.4477153-1-1-1h-2.5c-1.9329966 0-3.5 1.5670034-3.5 3.5s1.5670034 3.5 3.5 3.5c.8284271 0 1.5.6715729 1.5 1.5s-.6715729 1.5-1.5 1.5h-2.5c-.5522847 0-1 .4477153-1 1s.4477153 1 1 1h2.5c1.9329966 0 3.5-1.5670034 3.5-3.5s-1.5670034-3.5-3.5-3.5c-.8284271 0-1.5-.6715729-1.5-1.5s.6715729-1.5 1.5-1.5z"/><path id="Shape" d="m47.753 51.339c.1588102-.4287839.2423716-.8817748.247-1.339v-4c0-2.209139-1.790861-4-4-4s-4 1.790861-4 4v4c-.0083621 1.5653042.9018079 2.9900819 2.3256072 3.6404993 1.4237992.6504173 3.0966631.4056165 4.2743928-.6254993l.693.692c.3923789.3789722 1.0160848.3735524 1.4018186-.0121814s.3911536-1.0094397.0121814-1.4018186zm-3.753.661c-1.1045695 0-2-.8954305-2-2v-4c0-1.1045695.8954305-2 2-2s2 .8954305 2 2v3.586l-.293-.293c-.3923789-.3789722-1.0160848-.3735524-1.4018186.0121814s-.3911536 1.0094397-.0121814 1.4018186l.894.894c-.3422509.2575914-.7586462.3975591-1.187.399z"/><path id="Shape" d="m55 52h-2v-9c0-.5522847-.4477153-1-1-1s-1 .4477153-1 1v10c0 .5522847.4477153 1 1 1h3c.5522847 0 1-.4477153 1-1s-.4477153-1-1-1z"/></g></g></g></svg>